<mxfile host="app.diagrams.net" modified="2023-06-26T20:46:10.830Z" agent="Mozilla/5.0 (Windows NT 10.0; Win64; x64) AppleWebKit/537.36 (KHTML, like Gecko) Chrome/114.0.0.0 Safari/537.36" etag="jCasnrhnEBoHd4iqEWjr" version="21.5.0" type="github">
  <diagram name="Page-1" id="zA7887raAfqFaPBD0OPG">
    <mxGraphModel dx="1323" dy="717" grid="1" gridSize="10" guides="1" tooltips="1" connect="1" arrows="1" fold="1" page="1" pageScale="1" pageWidth="2339" pageHeight="3300" math="0" shadow="0">
      <root>
        <mxCell id="0" />
        <mxCell id="1" parent="0" />
        <mxCell id="OVtonEhGff64VZEiWhN6-2" style="edgeStyle=orthogonalEdgeStyle;rounded=0;orthogonalLoop=1;jettySize=auto;html=1;" edge="1" parent="1" source="OVtonEhGff64VZEiWhN6-1">
          <mxGeometry relative="1" as="geometry">
            <mxPoint x="440" y="440" as="targetPoint" />
          </mxGeometry>
        </mxCell>
        <mxCell id="OVtonEhGff64VZEiWhN6-1" value="START" style="rounded=1;whiteSpace=wrap;html=1;" vertex="1" parent="1">
          <mxGeometry x="380" y="320" width="120" height="60" as="geometry" />
        </mxCell>
        <mxCell id="OVtonEhGff64VZEiWhN6-3" value="INPUT&amp;nbsp; num1" style="rounded=0;whiteSpace=wrap;html=1;" vertex="1" parent="1">
          <mxGeometry x="380" y="440" width="120" height="60" as="geometry" />
        </mxCell>
        <mxCell id="OVtonEhGff64VZEiWhN6-4" value="INPUT&amp;nbsp; num2" style="rounded=0;whiteSpace=wrap;html=1;" vertex="1" parent="1">
          <mxGeometry x="380" y="520" width="120" height="60" as="geometry" />
        </mxCell>
        <mxCell id="OVtonEhGff64VZEiWhN6-8" value="" style="edgeStyle=orthogonalEdgeStyle;rounded=0;orthogonalLoop=1;jettySize=auto;html=1;" edge="1" parent="1" source="OVtonEhGff64VZEiWhN6-5" target="OVtonEhGff64VZEiWhN6-7">
          <mxGeometry relative="1" as="geometry" />
        </mxCell>
        <mxCell id="OVtonEhGff64VZEiWhN6-5" value="INPUT&amp;nbsp; num3" style="rounded=0;whiteSpace=wrap;html=1;" vertex="1" parent="1">
          <mxGeometry x="380" y="610" width="120" height="60" as="geometry" />
        </mxCell>
        <mxCell id="OVtonEhGff64VZEiWhN6-17" style="edgeStyle=orthogonalEdgeStyle;rounded=0;orthogonalLoop=1;jettySize=auto;html=1;" edge="1" parent="1" source="OVtonEhGff64VZEiWhN6-7">
          <mxGeometry relative="1" as="geometry">
            <mxPoint x="600" y="740" as="targetPoint" />
          </mxGeometry>
        </mxCell>
        <mxCell id="OVtonEhGff64VZEiWhN6-7" value="num3 &amp;gt; num2&amp;nbsp;&lt;b&gt;and&lt;br&gt;&amp;nbsp;&amp;nbsp;&lt;/b&gt;num3 &amp;gt; num1&amp;nbsp;&lt;b&gt;and&lt;br&gt;&lt;/b&gt;&amp;nbsp;num2 &amp;gt; num1" style="shape=parallelogram;perimeter=parallelogramPerimeter;whiteSpace=wrap;html=1;fixedSize=1;size=15;" vertex="1" parent="1">
          <mxGeometry x="355" y="710" width="170" height="60" as="geometry" />
        </mxCell>
        <mxCell id="OVtonEhGff64VZEiWhN6-14" value="" style="edgeStyle=elbowEdgeStyle;elbow=horizontal;endArrow=classic;html=1;curved=0;rounded=0;endSize=8;startSize=8;exitX=0;exitY=0.5;exitDx=0;exitDy=0;" edge="1" parent="1" source="OVtonEhGff64VZEiWhN6-7">
          <mxGeometry width="50" height="50" relative="1" as="geometry">
            <mxPoint x="335" y="740" as="sourcePoint" />
            <mxPoint x="350" y="840" as="targetPoint" />
            <Array as="points">
              <mxPoint x="300" y="790" />
              <mxPoint x="310" y="820" />
            </Array>
          </mxGeometry>
        </mxCell>
        <mxCell id="OVtonEhGff64VZEiWhN6-16" value="FALSE" style="text;html=1;align=center;verticalAlign=middle;resizable=0;points=[];autosize=1;strokeColor=none;fillColor=none;" vertex="1" parent="1">
          <mxGeometry x="300" y="718" width="60" height="30" as="geometry" />
        </mxCell>
        <mxCell id="OVtonEhGff64VZEiWhN6-18" value="TRUE" style="text;html=1;align=center;verticalAlign=middle;resizable=0;points=[];autosize=1;strokeColor=none;fillColor=none;" vertex="1" parent="1">
          <mxGeometry x="525" y="718" width="60" height="30" as="geometry" />
        </mxCell>
        <mxCell id="OVtonEhGff64VZEiWhN6-19" value="PRINT(num3,num2,num1)" style="rounded=0;whiteSpace=wrap;html=1;" vertex="1" parent="1">
          <mxGeometry x="600" y="710" width="160" height="60" as="geometry" />
        </mxCell>
        <mxCell id="OVtonEhGff64VZEiWhN6-20" style="edgeStyle=orthogonalEdgeStyle;rounded=0;orthogonalLoop=1;jettySize=auto;html=1;" edge="1" parent="1" source="OVtonEhGff64VZEiWhN6-21">
          <mxGeometry relative="1" as="geometry">
            <mxPoint x="590" y="870" as="targetPoint" />
          </mxGeometry>
        </mxCell>
        <mxCell id="OVtonEhGff64VZEiWhN6-21" value="num3 &amp;gt; num2&amp;nbsp;&lt;b&gt;and&lt;br&gt;&amp;nbsp;&amp;nbsp;&lt;/b&gt;num3 &amp;gt; num1&amp;nbsp;&lt;b&gt;and&lt;br&gt;&lt;/b&gt;&amp;nbsp;num1 &amp;gt; num2" style="shape=parallelogram;perimeter=parallelogramPerimeter;whiteSpace=wrap;html=1;fixedSize=1;size=15;" vertex="1" parent="1">
          <mxGeometry x="345" y="840" width="170" height="60" as="geometry" />
        </mxCell>
        <mxCell id="OVtonEhGff64VZEiWhN6-22" value="" style="edgeStyle=elbowEdgeStyle;elbow=horizontal;endArrow=classic;html=1;curved=0;rounded=0;endSize=8;startSize=8;exitX=0;exitY=0.5;exitDx=0;exitDy=0;" edge="1" parent="1" source="OVtonEhGff64VZEiWhN6-21">
          <mxGeometry width="50" height="50" relative="1" as="geometry">
            <mxPoint x="325" y="870" as="sourcePoint" />
            <mxPoint x="330" y="970" as="targetPoint" />
            <Array as="points">
              <mxPoint x="290" y="920" />
              <mxPoint x="300" y="950" />
            </Array>
          </mxGeometry>
        </mxCell>
        <mxCell id="OVtonEhGff64VZEiWhN6-23" value="FALSE" style="text;html=1;align=center;verticalAlign=middle;resizable=0;points=[];autosize=1;strokeColor=none;fillColor=none;" vertex="1" parent="1">
          <mxGeometry x="290" y="848" width="60" height="30" as="geometry" />
        </mxCell>
        <mxCell id="OVtonEhGff64VZEiWhN6-24" value="TRUE" style="text;html=1;align=center;verticalAlign=middle;resizable=0;points=[];autosize=1;strokeColor=none;fillColor=none;" vertex="1" parent="1">
          <mxGeometry x="515" y="848" width="60" height="30" as="geometry" />
        </mxCell>
        <mxCell id="OVtonEhGff64VZEiWhN6-25" value="PRINT(num3,num1,num2)" style="rounded=0;whiteSpace=wrap;html=1;" vertex="1" parent="1">
          <mxGeometry x="590" y="840" width="160" height="60" as="geometry" />
        </mxCell>
        <mxCell id="OVtonEhGff64VZEiWhN6-26" style="edgeStyle=orthogonalEdgeStyle;rounded=0;orthogonalLoop=1;jettySize=auto;html=1;" edge="1" parent="1" source="OVtonEhGff64VZEiWhN6-27">
          <mxGeometry relative="1" as="geometry">
            <mxPoint x="580" y="1000" as="targetPoint" />
          </mxGeometry>
        </mxCell>
        <mxCell id="OVtonEhGff64VZEiWhN6-27" value="num2&amp;gt; num3&amp;nbsp;&lt;b&gt;and&lt;br&gt;&amp;nbsp;&amp;nbsp;&lt;/b&gt;num2 &amp;gt; num1&amp;nbsp;&lt;b&gt;and&lt;br&gt;&lt;/b&gt;&amp;nbsp;num3 &amp;gt; num1" style="shape=parallelogram;perimeter=parallelogramPerimeter;whiteSpace=wrap;html=1;fixedSize=1;size=15;" vertex="1" parent="1">
          <mxGeometry x="335" y="970" width="170" height="60" as="geometry" />
        </mxCell>
        <mxCell id="OVtonEhGff64VZEiWhN6-28" value="" style="edgeStyle=elbowEdgeStyle;elbow=horizontal;endArrow=classic;html=1;curved=0;rounded=0;endSize=8;startSize=8;exitX=0;exitY=0.5;exitDx=0;exitDy=0;" edge="1" parent="1" source="OVtonEhGff64VZEiWhN6-27">
          <mxGeometry width="50" height="50" relative="1" as="geometry">
            <mxPoint x="315" y="1000" as="sourcePoint" />
            <mxPoint x="343" y="1130" as="targetPoint" />
            <Array as="points">
              <mxPoint x="280" y="1050" />
              <mxPoint x="290" y="1080" />
            </Array>
          </mxGeometry>
        </mxCell>
        <mxCell id="OVtonEhGff64VZEiWhN6-29" value="FALSE" style="text;html=1;align=center;verticalAlign=middle;resizable=0;points=[];autosize=1;strokeColor=none;fillColor=none;" vertex="1" parent="1">
          <mxGeometry x="280" y="978" width="60" height="30" as="geometry" />
        </mxCell>
        <mxCell id="OVtonEhGff64VZEiWhN6-30" value="TRUE" style="text;html=1;align=center;verticalAlign=middle;resizable=0;points=[];autosize=1;strokeColor=none;fillColor=none;" vertex="1" parent="1">
          <mxGeometry x="505" y="978" width="60" height="30" as="geometry" />
        </mxCell>
        <mxCell id="OVtonEhGff64VZEiWhN6-31" value="PRINT(num2,num3,num1)" style="rounded=0;whiteSpace=wrap;html=1;" vertex="1" parent="1">
          <mxGeometry x="580" y="970" width="160" height="60" as="geometry" />
        </mxCell>
        <mxCell id="OVtonEhGff64VZEiWhN6-62" style="edgeStyle=orthogonalEdgeStyle;rounded=0;orthogonalLoop=1;jettySize=auto;html=1;entryX=0;entryY=0.5;entryDx=0;entryDy=0;" edge="1" parent="1" source="OVtonEhGff64VZEiWhN6-39" target="OVtonEhGff64VZEiWhN6-43">
          <mxGeometry relative="1" as="geometry">
            <mxPoint x="570" y="1160" as="targetPoint" />
          </mxGeometry>
        </mxCell>
        <mxCell id="OVtonEhGff64VZEiWhN6-39" value="num2 &amp;gt; num3&amp;nbsp;&lt;b&gt;and&lt;br&gt;&amp;nbsp;&amp;nbsp;&lt;/b&gt;num2 &amp;gt; num1&amp;nbsp;&lt;b&gt;and&lt;br&gt;&lt;/b&gt;&amp;nbsp;num1 &amp;gt; num3" style="shape=parallelogram;perimeter=parallelogramPerimeter;whiteSpace=wrap;html=1;fixedSize=1;size=15;" vertex="1" parent="1">
          <mxGeometry x="330" y="1130" width="170" height="60" as="geometry" />
        </mxCell>
        <mxCell id="OVtonEhGff64VZEiWhN6-40" value="" style="edgeStyle=elbowEdgeStyle;elbow=horizontal;endArrow=classic;html=1;curved=0;rounded=0;endSize=8;startSize=8;exitX=0;exitY=0.5;exitDx=0;exitDy=0;" edge="1" parent="1" source="OVtonEhGff64VZEiWhN6-39" target="OVtonEhGff64VZEiWhN6-65">
          <mxGeometry width="50" height="50" relative="1" as="geometry">
            <mxPoint x="315" y="1130" as="sourcePoint" />
            <mxPoint x="310" y="1280" as="targetPoint" />
            <Array as="points">
              <mxPoint x="280" y="1290" />
              <mxPoint x="280" y="1180" />
              <mxPoint x="290" y="1210" />
            </Array>
          </mxGeometry>
        </mxCell>
        <mxCell id="OVtonEhGff64VZEiWhN6-41" value="FALSE" style="text;html=1;align=center;verticalAlign=middle;resizable=0;points=[];autosize=1;strokeColor=none;fillColor=none;" vertex="1" parent="1">
          <mxGeometry x="280" y="1138" width="60" height="30" as="geometry" />
        </mxCell>
        <mxCell id="OVtonEhGff64VZEiWhN6-42" value="TRUE" style="text;html=1;align=center;verticalAlign=middle;resizable=0;points=[];autosize=1;strokeColor=none;fillColor=none;" vertex="1" parent="1">
          <mxGeometry x="505" y="1138" width="60" height="30" as="geometry" />
        </mxCell>
        <mxCell id="OVtonEhGff64VZEiWhN6-43" value="PRINT(num2,num1,num3)" style="rounded=0;whiteSpace=wrap;html=1;" vertex="1" parent="1">
          <mxGeometry x="585" y="1130" width="160" height="60" as="geometry" />
        </mxCell>
        <mxCell id="OVtonEhGff64VZEiWhN6-51" value="" style="strokeWidth=2;html=1;shape=mxgraph.flowchart.annotation_2;align=left;labelPosition=right;pointerEvents=1;" vertex="1" parent="1">
          <mxGeometry x="230" y="730" width="50" height="100" as="geometry" />
        </mxCell>
        <mxCell id="OVtonEhGff64VZEiWhN6-53" value="Initial conditional" style="text;html=1;align=center;verticalAlign=middle;resizable=0;points=[];autosize=1;strokeColor=none;fillColor=none;" vertex="1" parent="1">
          <mxGeometry x="125" y="765" width="110" height="30" as="geometry" />
        </mxCell>
        <mxCell id="OVtonEhGff64VZEiWhN6-65" value="num1 &amp;gt; num3&amp;nbsp;&lt;b&gt;and&lt;br&gt;&amp;nbsp;&amp;nbsp;&lt;/b&gt;num1 &amp;gt; num2&amp;nbsp;&lt;b&gt;and&lt;br&gt;&lt;/b&gt;&amp;nbsp;num3 &amp;gt; num2" style="shape=parallelogram;perimeter=parallelogramPerimeter;whiteSpace=wrap;html=1;fixedSize=1;size=15;" vertex="1" parent="1">
          <mxGeometry x="335" y="1280" width="170" height="60" as="geometry" />
        </mxCell>
        <mxCell id="OVtonEhGff64VZEiWhN6-67" value="" style="edgeStyle=elbowEdgeStyle;elbow=horizontal;endArrow=classic;html=1;curved=0;rounded=0;endSize=8;startSize=8;exitX=0;exitY=0.5;exitDx=0;exitDy=0;" edge="1" parent="1">
          <mxGeometry width="50" height="50" relative="1" as="geometry">
            <mxPoint x="338" y="1320" as="sourcePoint" />
            <mxPoint x="348" y="1450" as="targetPoint" />
            <Array as="points">
              <mxPoint x="280" y="1450" />
              <mxPoint x="280" y="1340" />
              <mxPoint x="290" y="1370" />
            </Array>
          </mxGeometry>
        </mxCell>
        <mxCell id="OVtonEhGff64VZEiWhN6-68" style="edgeStyle=orthogonalEdgeStyle;rounded=0;orthogonalLoop=1;jettySize=auto;html=1;entryX=0;entryY=0.5;entryDx=0;entryDy=0;" edge="1" parent="1">
          <mxGeometry relative="1" as="geometry">
            <mxPoint x="607" y="1317" as="targetPoint" />
            <mxPoint x="515" y="1317" as="sourcePoint" />
          </mxGeometry>
        </mxCell>
        <mxCell id="OVtonEhGff64VZEiWhN6-69" value="TRUE" style="text;html=1;align=center;verticalAlign=middle;resizable=0;points=[];autosize=1;strokeColor=none;fillColor=none;" vertex="1" parent="1">
          <mxGeometry x="527" y="1295" width="60" height="30" as="geometry" />
        </mxCell>
        <mxCell id="OVtonEhGff64VZEiWhN6-70" value="PRINT(num1,num3,num2)" style="rounded=0;whiteSpace=wrap;html=1;" vertex="1" parent="1">
          <mxGeometry x="610" y="1280" width="160" height="60" as="geometry" />
        </mxCell>
        <mxCell id="OVtonEhGff64VZEiWhN6-71" value="FALSE" style="text;html=1;align=center;verticalAlign=middle;resizable=0;points=[];autosize=1;strokeColor=none;fillColor=none;" vertex="1" parent="1">
          <mxGeometry x="280" y="1295" width="60" height="30" as="geometry" />
        </mxCell>
        <mxCell id="OVtonEhGff64VZEiWhN6-74" style="edgeStyle=orthogonalEdgeStyle;rounded=0;orthogonalLoop=1;jettySize=auto;html=1;" edge="1" parent="1" source="OVtonEhGff64VZEiWhN6-73">
          <mxGeometry relative="1" as="geometry">
            <mxPoint x="425" y="1560" as="targetPoint" />
          </mxGeometry>
        </mxCell>
        <mxCell id="OVtonEhGff64VZEiWhN6-73" value="num1 &amp;gt; num3&amp;nbsp;&lt;b&gt;and&lt;br&gt;&amp;nbsp;&amp;nbsp;&lt;/b&gt;num1 &amp;gt; num2&amp;nbsp;&lt;b&gt;and&lt;br&gt;&lt;/b&gt;&amp;nbsp;num2 &amp;gt; num3" style="shape=parallelogram;perimeter=parallelogramPerimeter;whiteSpace=wrap;html=1;fixedSize=1;size=15;" vertex="1" parent="1">
          <mxGeometry x="340" y="1440" width="170" height="60" as="geometry" />
        </mxCell>
        <mxCell id="OVtonEhGff64VZEiWhN6-76" style="edgeStyle=orthogonalEdgeStyle;rounded=0;orthogonalLoop=1;jettySize=auto;html=1;" edge="1" parent="1" source="OVtonEhGff64VZEiWhN6-75" target="OVtonEhGff64VZEiWhN6-77">
          <mxGeometry relative="1" as="geometry">
            <mxPoint x="425" y="1680" as="targetPoint" />
          </mxGeometry>
        </mxCell>
        <mxCell id="OVtonEhGff64VZEiWhN6-75" value="PRINT (num1,num2,num3)" style="rounded=0;whiteSpace=wrap;html=1;" vertex="1" parent="1">
          <mxGeometry x="365" y="1560" width="120" height="60" as="geometry" />
        </mxCell>
        <mxCell id="OVtonEhGff64VZEiWhN6-77" value="END" style="rounded=1;whiteSpace=wrap;html=1;" vertex="1" parent="1">
          <mxGeometry x="365" y="1650" width="120" height="60" as="geometry" />
        </mxCell>
      </root>
    </mxGraphModel>
  </diagram>
</mxfile>
